Coordinates
version=1
nRows=15
nColumns=26
inDegrees=yes

Units are S.I. units (second, meters, Newtons, ...)
Angles are in degrees.

endheader
time	pelvis_tilt	pelvis_list	pelvis_rotation	pelvis_tx	pelvis_ty	pelvis_tz	hip_flexion_r	hip_adduction_r	hip_rotation_r	knee_angle_r	knee_angle_r_beta	ankle_angle_r	subtalar_angle_r	mtp_angle_r	hip_flexion_l	hip_adduction_l	hip_rotation_l	knee_angle_l	knee_angle_l_beta	ankle_angle_l	subtalar_angle_l	mtp_angle_l	lumbar_extension	lumbar_bending	lumbar_rotation
      0.53333333	      4.14372067	      2.77006339	      1.37156416	      0.55795305	      0.99469007	      0.10701025	     18.22536152	     -4.18639996	     -6.88428337	      7.36161833	      7.36161833	     -0.49032481	      0.00000000	      0.00000000	    -13.39372586	      3.29757980	     -6.42692022	     10.98153769	     10.98153769	     14.45971050	      0.00000000	      0.00000000	    -17.08540944	     -2.54793645	     -1.35040861
      0.54166667	      4.39997342	      2.60957279	      1.73121303	      0.56783107	      0.99386610	      0.10740477	     17.83369310	     -4.01398532	     -6.86875004	      8.26991487	      8.26991487	     -0.85733929	      0.00000000	      0.00000000	    -14.11601631	      2.93262095	     -6.31420669	     11.33267695	     11.33267695	     14.70105666	      0.00000000	      0.00000000	    -17.18852587	     -2.16751107	     -1.52852623
      0.55000000	      4.73704940	      2.37799508	      2.16103653	      0.57789943	      0.99330662	      0.10782479	     17.14951223	     -3.76495243	     -6.80132385	      8.74164662	      8.74164662	     -1.32120304	      0.00000000	      0.00000000	    -14.86295530	      2.44969161	     -6.22972025	     11.78737578	     11.78737578	     14.90038761	      0.00000000	      0.00000000	    -17.36247235	     -1.69127730	     -1.73946559
      0.55833333	      5.11805189	      2.12708354	      2.64428515	      0.58804784	      0.99299901	      0.10825278	     16.30241972	     -3.48180661	     -6.78874032	      8.95559326	      8.95559326	     -2.15648908	      0.00000000	      0.00000000	    -15.56726315	      1.88692988	     -6.17771471	     12.40206852	     12.40206852	     15.04157441	      0.00000000	      0.00000000	    -17.57279182	     -1.18779458	     -1.93716935
      0.56666667	      5.52317908	      1.87625288	      3.16247840	      0.59831676	      0.99287957	      0.10869968	     15.33639329	     -3.22598849	     -6.96760641	      8.98206954	      8.98206954	     -3.21491962	      0.00000000	      0.00000000	    -16.22164479	      1.29627745	     -6.08511391	     13.13869116	     13.13869116	     15.13318703	      0.00000000	      0.00000000	    -17.78806149	     -0.67391115	     -2.15633379
      0.57500000	      5.87455141	      1.68534482	      3.66239474	      0.60851675	      0.99270930	      0.10922119	     14.41029027	     -3.04582576	     -7.23480308	      8.96752353	      8.96752353	     -4.34263742	      0.00000000	      0.00000000	    -16.68535677	      0.74015728	     -5.95390858	     14.11004373	     14.11004373	     15.16431017	      0.00000000	      0.00000000	    -17.95178368	     -0.24048909	     -2.29467249
      0.58333333	      6.16363865	      1.55929325	      4.12891758	      0.61858277	      0.99250060	      0.10988578	     13.57810080	     -2.93021505	     -7.53477843	      9.02895670	      9.02895670	     -5.12711494	      0.00000000	      0.00000000	    -16.88958981	      0.21639826	     -5.89417760	     15.44038122	     15.44038122	     15.26165748	      0.00000000	      0.00000000	    -18.06450771	      0.11139396	     -2.39621182
      0.59166667	      6.33631114	      1.53366598	      4.47966101	      0.62834294	      0.99228530	      0.11074535	     12.95177340	     -2.91136147	     -7.86855188	      9.23634619	      9.23634619	     -5.74528574	      0.00000000	      0.00000000	    -16.82836099	     -0.16327468	     -5.79622855	     16.97365194	     16.97365194	     15.17339877	      0.00000000	      0.00000000	    -18.08838957	      0.30093765	     -2.31298222
      0.60000000	      6.41167629	      1.50952054	      4.72474334	      0.63789145	      0.99214210	      0.11187658	     12.42792734	     -2.84774638	     -8.01808350	      9.45549218	      9.45549218	     -6.06895652	      0.00000000	      0.00000000	    -16.28499307	     -0.58956490	     -5.81498548	     19.16890987	     19.16890987	     15.06159305	      0.00000000	      0.00000000	    -18.03095341	      0.45310651	     -2.07869230
      0.60833333	      6.52879710	      1.25286814	      4.93752366	      0.64708123	      0.99235125	      0.11303825	     12.19980199	     -2.55997351	     -8.42608882	     10.20893239	     10.20893239	     -6.25085134	      0.00000000	      0.00000000	    -15.67828994	     -1.26384854	     -5.92298751	     21.50662799	     21.50662799	     14.88414289	      0.00000000	      0.00000000	    -18.06728484	      0.87055230	     -1.75187707
      0.61666667	      6.65650656	      0.80394790	      5.13809839	      0.65616978	      0.99262633	      0.11420433	     11.85991793	     -2.04144907	     -8.67101694	     10.87283825	     10.87283825	     -6.03519020	      0.00000000	      0.00000000	    -14.89602686	     -2.16142173	     -6.08998017	     24.11576889	     24.11576889	     14.61118640	      0.00000000	      0.00000000	    -18.11535522	      1.50624127	     -1.31782876
      0.62500000	      6.71879346	      0.26000911	      5.23567589	      0.66531193	      0.99294046	      0.11548861	     11.68662600	     -1.38895040	     -8.90800220	     11.72795287	     11.72795287	     -5.46371869	      0.00000000	      0.00000000	    -13.86649837	     -3.17676583	     -6.26018793	     27.05294947	     27.05294947	     14.20177405	      0.00000000	      0.00000000	    -18.08651523	      2.22074908	     -0.74296915
      0.63333333	      6.96635743	     -0.17673974	      5.36652537	      0.67434732	      0.99377659	      0.11677260	     11.27661328	     -0.83494031	     -9.15207180	     12.56259899	     12.56259899	     -4.74498281	      0.00000000	      0.00000000	    -13.02721181	     -4.14245218	     -6.26539893	     29.93098735	     29.93098735	     13.37839085	      0.00000000	      0.00000000	    -18.30081645	      2.82208341	     -0.22615488
      0.64166667	      7.32179872	     -0.59427975	      5.50208166	      0.68342943	      0.99491206	      0.11818458	     10.65762325	     -0.26904121	     -9.32781211	     13.21813554	     13.21813554	     -4.12822259	      0.00000000	      0.00000000	    -12.11920822	     -5.09822770	     -6.31097872	     33.01044631	     33.01044631	     12.29566502	      0.00000000	      0.00000000	    -18.64571573	      3.38001619	      0.27684310
      0.65000000	      7.69279518	     -0.97746751	      5.63655448	      0.69241983	      0.99612236	      0.11978554	      9.93401071	      0.31575055	     -9.18841603	     13.73027290	     13.73027290	     -3.47226181	      0.00000000	      0.00000000	    -11.02829466	     -6.04661069	     -6.29694383	     36.30113509	     36.30113509	     10.92074489	      0.00000000	      0.00000000	    -19.03034136	      3.85987230	      0.73788066
